<?xml version="1.0" encoding="UTF-8" standalone="no"?>
<!DOCTYPE svg PUBLIC "-//W3C//DTD SVG 1.1//EN" "http://www.w3.org/Graphics/SVG/1.1/DTD/svg11.dtd">
<svg xmlns="http://www.w3.org/2000/svg" viewBox="0 0 32 32" width="32" height="32"><defs><style>.cls-1{fill:#ef4444;}.cls-2{fill:#fff;}</style></defs><rect class="cls-1" width="32" height="32"/><path class="cls-2" d="M8.5,16.27c0-5,3-7.92,6.39-7.92,1.81,0,3.66,1,4.49,3.81h.08l.62-3.45h2.44c-.78,3.83-1.83,8.71-1.83,11.38a1.39,1.39,0,0,0,1.44,1.51,3,3,0,0,0,1-.22l.35,1.88a4.43,4.43,0,0,1-1.89.39,2.62,2.62,0,0,1-2.87-3h-.09a5.08,5.08,0,0,1-4.53,3C10.78,23.65,8.5,21.05,8.5,16.27Zm10.09.78.22-2.74c-.81-3.17-2.3-3.88-3.65-3.88-2.1,0-4.11,2-4.11,5.81,0,3.39,1.33,5.34,3.58,5.34C16.54,21.58,18.41,19.52,18.59,17.05Z"/></svg>